#N canvas 671 30 538 338 10;
#X declare -lib mrpeach;
#X obj 38 20 import mrpeach;
#X obj 135 239 udpsend;
#X obj 185 182 packOSC;
#X floatatom 184 37 5 0 4 0 - - -;
#X msg 210 132 send /speed \$1;
#X msg 37 79 connect localhost 12000;
#X msg 116 114 disconnect;
#X msg 303 38 0;
#X msg 347 60 0.5;
#X msg 314 98 1;
#X connect 2 0 1 0;
#X connect 3 0 4 0;
#X connect 4 0 2 0;
#X connect 5 0 1 0;
#X connect 6 0 1 0;
#X connect 7 0 4 0;
#X connect 8 0 4 0;
#X connect 9 0 4 0;
